<svg width="220" height="32" viewBox="0 0 220 32" fill="none" xmlns="http://www.w3.org/2000/svg">
<path d="M8 28V24H4V20H0V8H4V4H8V0H24V4H28V8H20V4H12V8H8V20H12V24H20V20H28V24H24V28H8ZM44 12H48V16H44V28H36V8H44V12ZM60 8V12H48V8H60ZM68 32V28H84V24H68V20H64V8H72V20H84V8H92V28H88V32H68ZM96 28V24H116V20H100V16H96V12H100V8H120V12H104V16H120V20H124V24H120V28H96ZM140 28V12H132V8H140V0H148V8H156V12H148V28H140ZM164 28V24H160V20H164V16H180V12H164V8H184V12H188V28H164ZM168 24H180V20H168V24ZM196 28V24H204V4H200V0H212V24H220V28H196Z" fill="white"/>
</svg>
