<svg width="280" height="32" viewBox="0 0 280 32" fill="none" xmlns="http://www.w3.org/2000/svg">
<path d="M0 28V0H8V24H24V28H0ZM40 4V0H48V4H40ZM32 28V24H40V12H36V8H48V24H56V28H32ZM64 32V28H80V24H64V20H60V12H64V8H88V28H84V32H64ZM68 20H80V12H68V20ZM92 28V0H100V8H116V12H120V28H112V12H100V28H92ZM136 28V12H128V8H136V0H144V8H152V12H144V28H136ZM156 28V8H180V12H184V28H176V12H164V28H156ZM200 4V0H208V4H200ZM192 28V24H200V12H196V8H208V24H216V28H192ZM220 28V8H244V12H248V28H240V12H228V28H220ZM256 32V28H272V24H256V20H252V12H256V8H280V28H276V32H256ZM260 20H272V12H260V20Z" fill="white"/>
</svg>
