<svg width="220" height="28" viewBox="0 0 220 28" fill="none" xmlns="http://www.w3.org/2000/svg">
<path d="M0 28V8H4V4H8V0H20V4H24V8H28V28H20V20H8V28H0ZM8 16H20V8H16V4H12V8H8V16ZM32 28V8H56V12H60V28H52V12H40V28H32ZM68 28V24H64V12H68V8H92V12H72V24H92V28H68ZM108 4V0H116V4H108ZM100 28V24H108V12H104V8H116V24H124V28H100ZM132 28V24H128V12H132V8H152V12H156V20H136V24H152V28H132ZM136 16H148V12H136V16ZM160 28V8H184V12H188V28H180V12H168V28H160ZM204 28V12H196V8H204V0H212V8H220V12H212V28H204Z" fill="white"/>
</svg>
