<svg width="252" height="28" viewBox="0 0 252 28" fill="none" xmlns="http://www.w3.org/2000/svg">
<path d="M0 28V0H28V4H8V12H24V16H8V24H28V28H0ZM36 28V24H44V4H40V0H52V24H60V28H36ZM68 28V24H64V12H68V8H84V0H92V28H68ZM72 24H84V12H72V24ZM108 12H112V16H108V28H100V8H108V12ZM124 8V12H112V8H124ZM140 4V0H148V4H140ZM132 28V24H140V12H136V8H148V24H156V28H132ZM172 28V12H164V8H172V0H180V8H188V12H180V28H172ZM196 28V24H192V12H196V8H220V12H200V24H220V28H196ZM224 28V0H232V8H248V12H252V28H244V12H232V28H224Z" fill="white"/>
</svg>
