<svg width="248" height="28" viewBox="0 0 248 28" fill="none" xmlns="http://www.w3.org/2000/svg">
<path d="M0 28V0H8V24H24V28H0ZM32 28V24H28V12H32V8H52V12H56V24H52V28H32ZM36 24H48V12H36V24ZM72 28V24H68V20H64V8H72V20H80V8H88V20H84V24H80V28H72ZM96 28V24H92V12H96V8H116V12H120V20H100V24H116V28H96ZM100 16H112V12H100V16ZM128 28V24H136V4H132V0H144V24H152V28H128ZM160 28V24H156V12H160V8H180V12H184V20H164V24H180V28H160ZM164 16H176V12H164V16ZM188 28V24H208V20H192V16H188V12H192V8H212V12H196V16H212V20H216V24H212V28H188ZM220 28V24H240V20H224V16H220V12H224V8H244V12H228V16H244V20H248V24H244V28H220Z" fill="white"/>
</svg>
